<svg fill="#1A1A1A" xmlns="http://www.w3.org/2000/svg"  viewBox="0 0 50 50" width="25px" height="25px"><path d="M 20.53125 8.4003906 C 20.43 8.407125 20.328516 8.4257812 20.228516 8.4570312 C 19.828516 8.5800312 19.522766 8.8755312 19.384766 9.2695312 L 17.962891 13.363281 C 17.916891 13.497281 17.779672 13.579594 17.638672 13.558594 L 12.548828 12.837891 C 12.110828 12.777891 11.666953 12.939297 11.376953 13.279297 C 11.088953 13.615297 10.994047 14.070187 11.123047 14.492188 L 12.541016 19.134766 C 12.586016 19.280766 12.509234 19.434234 12.365234 19.490234 L 7.6796875 21.322266 C 7.2536875 21.488266 6.9520469 21.855734 6.8730469 22.302734 C 6.7950469 22.748734 6.9539219 23.192187 7.2949219 23.492188 L 10.869141 26.630859 C 10.952141 26.702859 10.96775 26.793844 10.96875 26.839844 C 10.97075 26.886844 10.960812 26.974734 10.882812 27.052734 L 8.3554688 29.560547 C 8.0854687 29.828547 7.9485156 30.199125 7.9785156 30.578125 C 8.0085156 30.957125 8.2036719 31.301437 8.5136719 31.523438 L 10.921875 33.248047 C 11.016875 33.316047 11.061109 33.434875 11.037109 33.546875 L 10.402344 36.4375 C 10.310344 36.8575 10.435375 37.294469 10.734375 37.605469 C 11.035375 37.918469 11.470437 38.058422 11.898438 37.982422 L 17.496094 36.980469 C 19.101366 39.455592 21.883108 41.099609 25.046875 41.099609 C 28.216699 41.099609 31.003614 39.449857 32.607422 36.966797 L 38.101562 37.982422 C 38.178563 37.996422 38.254078 38.003906 38.330078 38.003906 C 38.681078 38.003906 39.020578 37.860516 39.267578 37.603516 C 39.566578 37.292516 39.689656 36.856547 39.597656 36.435547 L 38.964844 33.546875 C 38.939844 33.434875 38.984125 33.316047 39.078125 33.248047 L 41.486328 31.523438 C 41.795328 31.301437 41.991484 30.957125 42.021484 30.578125 C 42.051484 30.199125 41.914531 29.828547 41.644531 29.560547 L 39.117188 27.052734 C 39.040188 26.974734 39.029156 26.885891 39.035156 26.837891 C 39.036156 26.791891 39.051766 26.702859 39.134766 26.630859 L 42.710938 23.492188 C 43.051938 23.193188 43.208859 22.746781 43.130859 22.300781 C 43.051859 21.853781 42.752172 21.486313 42.326172 21.320312 L 37.640625 19.488281 C 37.495625 19.432281 37.419844 19.280766 37.464844 19.134766 L 38.882812 14.492188 C 39.011812 14.069187 38.916906 13.615297 38.628906 13.279297 C 38.338906 12.939297 37.899031 12.774891 37.457031 12.837891 L 32.367188 13.558594 C 32.226188 13.579594 32.088969 13.496281 32.042969 13.363281 L 30.619141 9.2695312 C 30.481141 8.8755313 30.174391 8.5800312 29.775391 8.4570312 C 29.376391 8.3340313 28.953234 8.40625 28.615234 8.65625 L 25.181641 11.210938 C 25.076641 11.290937 24.927266 11.290938 24.822266 11.210938 L 21.388672 8.65625 C 21.136672 8.46875 20.835 8.3801875 20.53125 8.4003906 z M 20.630859 9.4003906 C 20.678859 9.4032656 20.733562 9.4194375 20.789062 9.4609375 L 24.222656 12.013672 C 24.679656 12.354672 25.320344 12.354672 25.777344 12.013672 L 29.208984 9.4609375 C 29.319984 9.3789375 29.433562 9.4001563 29.476562 9.4101562 C 29.529562 9.4271563 29.627922 9.4737031 29.669922 9.5957031 L 31.091797 13.689453 C 31.295797 14.272453 31.884953 14.632875 32.501953 14.546875 L 37.591797 13.824219 C 37.735797 13.804219 37.831281 13.888781 37.863281 13.925781 C 37.901281 13.970781 37.960922 14.066266 37.919922 14.197266 L 36.501953 18.841797 C 36.307953 19.481797 36.643531 20.174922 37.269531 20.419922 L 41.957031 22.251953 C 42.097031 22.306953 42.132625 22.423656 42.140625 22.472656 C 42.149625 22.519656 42.155922 22.641281 42.044922 22.738281 L 38.46875 25.878906 C 38.20175 26.114906 38.04225 26.452594 38.03125 26.808594 C 38.02025 27.164594 38.159109 27.511719 38.412109 27.761719 L 40.939453 30.269531 C 41.023453 30.351531 41.029391 30.449047 41.025391 30.498047 C 41.021391 30.547047 41.000297 30.641938 40.904297 30.710938 L 38.494141 32.435547 C 38.075141 32.737547 37.876328 33.255812 37.986328 33.757812 L 38.619141 36.648438 C 38.648141 36.779438 38.584922 36.868156 38.544922 36.910156 C 38.510922 36.945156 38.413297 37.023047 38.279297 36.998047 L 33.125 36.042969 C 33.709517 34.850367 34.046875 33.514998 34.046875 32.099609 L 34.046875 25.699219 C 34.046875 20.736219 30.009875 16.699219 25.046875 16.699219 C 20.083875 16.699219 16.046875 20.736219 16.046875 25.699219 L 16.046875 32.099609 C 16.046875 33.5212 16.385278 34.862066 16.974609 36.058594 L 11.724609 36.998047 C 11.579609 37.025047 11.486125 36.945156 11.453125 36.910156 C 11.413125 36.869156 11.350906 36.780391 11.378906 36.650391 L 12.013672 33.759766 C 12.123672 33.257766 11.923906 32.7395 11.503906 32.4375 L 9.0957031 30.710938 C 8.9997031 30.642938 8.9786094 30.548047 8.9746094 30.498047 C 8.9706094 30.448047 8.9765469 30.354484 9.0605469 30.271484 L 11.583984 27.763672 C 11.837984 27.512672 11.976797 27.165547 11.966797 26.810547 C 11.956797 26.455547 11.795344 26.116859 11.527344 25.880859 L 7.9511719 22.742188 C 7.8391719 22.645188 7.8484219 22.523563 7.8574219 22.476562 C 7.8654219 22.427562 7.8990625 22.308906 8.0390625 22.253906 L 12.728516 20.421875 C 13.353516 20.176875 13.690094 19.48375 13.496094 18.84375 L 12.078125 14.199219 C 12.037125 14.068219 12.096766 13.974687 12.134766 13.929688 C 12.167766 13.892687 12.258297 13.808125 12.404297 13.828125 L 17.494141 14.548828 C 18.108141 14.633828 18.700297 14.276359 18.904297 13.693359 L 20.328125 9.5996094 C 20.370125 9.4776094 20.465531 9.4310625 20.519531 9.4140625 C 20.542031 9.4070625 20.582859 9.3975156 20.630859 9.4003906 z M 25.046875 17.699219 C 29.464875 17.699219 33.046875 21.281219 33.046875 25.699219 L 33.046875 32.099609 C 33.046875 36.517609 29.464875 40.099609 25.046875 40.099609 C 20.628875 40.099609 17.046875 36.517609 17.046875 32.099609 L 17.046875 25.699219 C 17.046875 21.281219 20.628875 17.699219 25.046875 17.699219 z M 19.414062 23.601562 C 19.220328 23.614734 19.041656 23.740547 18.972656 23.935547 C 18.882656 24.196547 19.02025 24.481266 19.28125 24.572266 C 19.664488 24.705903 20.066011 24.82068 20.480469 24.921875 C 19.560997 25.508171 18.945312 26.529926 18.945312 27.699219 C 18.945313 29.519219 20.427094 31 22.246094 31 C 23.001014 31 23.689314 30.734984 24.246094 30.306641 L 24.246094 31.849609 C 24.246094 32.291609 24.604875 32.650391 25.046875 32.650391 C 25.488875 32.650391 25.845703 32.291609 25.845703 31.849609 L 25.845703 30.306641 C 26.402483 30.734984 27.090782 31 27.845703 31 C 29.665703 31 31.145484 29.519219 31.146484 27.699219 C 31.146484 26.49502 30.491303 25.451304 29.525391 24.875 C 29.943281 24.786014 30.361484 24.694092 30.775391 24.582031 C 31.042391 24.510031 31.200906 24.23575 31.128906 23.96875 C 31.057906 23.70175 30.785625 23.544234 30.515625 23.615234 C 26.660625 24.658234 22.584375 24.661953 19.609375 23.626953 C 19.545125 23.604703 19.478641 23.597172 19.414062 23.601562 z M 25.509766 25.371094 C 25.330843 25.550609 25.180961 25.756106 25.046875 25.972656 C 24.918083 25.764553 24.771895 25.568588 24.601562 25.394531 C 24.640467 25.394745 24.677806 25.398438 24.716797 25.398438 C 24.978048 25.398438 25.245083 25.380673 25.509766 25.371094 z M 22.246094 25.400391 C 23.515094 25.400391 24.546875 26.431219 24.546875 27.699219 C 24.546875 28.967219 23.515094 30 22.246094 30 C 20.977094 30 19.945312 28.967219 19.945312 27.699219 C 19.945313 26.431219 20.977094 25.400391 22.246094 25.400391 z M 27.845703 25.400391 C 29.113703 25.400391 30.145484 26.431219 30.146484 27.699219 C 30.146484 28.967219 29.114703 30 27.845703 30 C 26.576703 30 25.546875 28.967219 25.546875 27.699219 C 25.546875 26.431219 26.576703 25.400391 27.845703 25.400391 z M 22.246094 26.900391 C 21.804094 26.900391 21.445312 27.257219 21.445312 27.699219 C 21.445313 28.141219 21.804094 28.5 22.246094 28.5 C 22.688094 28.5 23.046875 28.141219 23.046875 27.699219 C 23.046875 27.257219 22.688094 26.900391 22.246094 26.900391 z M 27.845703 26.900391 C 27.403703 26.900391 27.046875 27.257219 27.046875 27.699219 C 27.046875 28.141219 27.403703 28.5 27.845703 28.5 C 28.287703 28.5 28.646484 28.141219 28.646484 27.699219 C 28.646484 27.257219 28.287703 26.900391 27.845703 26.900391 z M 25.046875 34.201172 C 23.91875 34.201047 22.790922 34.410578 21.669922 34.830078 C 21.411922 34.928078 21.278953 35.216609 21.376953 35.474609 C 21.473953 35.733609 21.764484 35.863578 22.021484 35.767578 C 22.22948 35.68958 22.437972 35.626293 22.646484 35.564453 L 22.646484 36.099609 C 22.646484 36.541609 23.003312 36.900391 23.445312 36.900391 C 23.887312 36.900391 24.246094 36.541609 24.246094 36.099609 L 24.246094 35.244141 C 25.523087 35.118406 26.80235 35.291618 28.070312 35.767578 C 28.128312 35.789578 28.187094 35.800781 28.246094 35.800781 C 28.448094 35.800781 28.639844 35.677563 28.714844 35.476562 C 28.812844 35.217563 28.680875 34.929031 28.421875 34.832031 C 27.302375 34.412031 26.175 34.201297 25.046875 34.201172 z"/></svg>